<?xml version="1.0" standalone="no"?>
<!DOCTYPE svg PUBLIC "-//W3C//DTD SVG 20010904//EN"
 "http://www.w3.org/TR/2001/REC-SVG-20010904/DTD/svg10.dtd">
<svg version="1.0" xmlns="http://www.w3.org/2000/svg"
 width="150.000000pt" height="150.000000pt" viewBox="0 0 150.000000 150.000000"
 preserveAspectRatio="xMidYMid meet">
<metadata>
Created by potrace 1.11, written by Peter Selinger 2001-2013
</metadata>
<g transform="translate(0.000000,150.000000) scale(0.100000,-0.100000)"
fill="#000000" stroke="none">
<path d="M836 1458 c-6 -43 -26 -288 -26 -312 0 -9 9 -12 24 -9 14 3 23 10 21
17 -2 6 -6 36 -9 66 l-5 55 13 -40 12 -40 7 36 c7 36 9 37 62 44 30 3 59 4 64
0 11 -6 3 -36 -13 -48 -7 -5 -4 -6 7 -3 26 9 46 -5 21 -15 -17 -7 -17 -8 -1
-8 10 -1 15 -5 12 -11 -3 -5 0 -10 7 -11 33 -1 -33 -18 -82 -20 l-55 -2 55 -7
c49 -6 52 -8 23 -14 -18 -3 -33 -18 -27 -27 4 -6 11 -6 20 2 12 9 14 6 14 -22
0 -50 9 -59 58 -52 23 3 42 10 42 14 0 5 9 9 20 9 28 0 25 -24 -2 -27 -13 -1
-48 -7 -78 -12 -53 -9 -52 -9 33 -7 48 0 87 -2 87 -5 0 -6 -54 -33 -56 -27 0
1 -9 -3 -18 -11 -11 -9 -13 -17 -7 -21 6 -3 12 -18 13 -33 4 -41 18 -32 15 9
-1 22 3 39 11 41 7 3 12 -4 12 -15 0 -11 -5 -22 -11 -24 -8 -3 -6 -10 5 -20
15 -16 15 -18 -6 -29 -13 -7 -50 -16 -83 -20 -48 -6 -39 -7 43 -4 92 3 125 -4
88 -18 -7 -3 -24 -20 -36 -37 l-23 -32 22 7 c13 4 21 2 21 -5 0 -6 -4 -8 -10
-5 -5 3 -10 2 -10 -4 0 -10 -28 -14 -205 -30 -5 -1 -4 -5 3 -9 7 -5 36 -5 65
-1 28 4 75 8 104 8 43 1 51 -2 47 -14 -4 -8 -10 -12 -15 -9 -5 3 -9 -1 -9 -10
0 -8 -6 -17 -12 -19 -7 -3 2 -3 21 0 23 4 37 2 45 -8 6 -8 22 -19 36 -25 22
-10 18 -12 -39 -18 -35 -4 -99 -9 -144 -11 -44 -3 -82 -7 -85 -10 -3 -3 -31
-5 -63 -5 -65 0 -69 5 -69 94 0 95 -18 31 -30 -109 -16 -190 -17 -234 -5 -239
16 -7 -247 -7 -313 0 l-60 7 13 41 c18 58 85 208 101 227 8 9 12 18 9 21 -3 3
8 40 25 83 17 43 29 79 27 81 -2 2 -43 -93 -93 -211 -60 -144 -91 -208 -96
-197 -4 12 -7 7 -7 -14 -1 -26 -6 -33 -28 -39 -24 -6 -26 -8 -12 -18 22 -16
51 -115 35 -121 -15 -6 36 -8 234 -10 124 -1 165 -4 166 -13 1 -7 2 -17 3 -23
0 -5 19 -13 41 -16 l39 -6 -22 -19 c-21 -18 -21 -18 -2 -19 15 0 17 -2 7 -9
-10 -6 -8 -10 10 -16 12 -4 30 -6 38 -6 12 2 13 0 1 -7 -7 -6 -10 -15 -7 -21
4 -6 0 -11 -8 -11 -9 0 -16 -5 -16 -11 0 -5 4 -8 9 -5 9 6 80 15 151 21 47 3
50 5 20 15 l-25 8 28 1 c18 1 27 -4 27 -15 0 -9 7 -14 18 -12 10 2 17 12 16
26 -1 13 4 22 13 22 8 0 12 -4 8 -9 -3 -6 4 -9 15 -8 11 1 20 5 20 9 0 4 10 8
23 8 13 0 29 6 36 12 11 11 12 10 6 -2 -7 -12 -6 -13 6 -2 12 11 12 14 -1 22
-11 7 -11 10 -2 10 7 0 10 5 7 10 -3 6 2 10 12 10 11 0 24 5 31 12 7 7 12 8
12 4 0 -5 12 0 28 10 21 15 46 19 115 19 l88 0 -3 37 c-1 20 -5 35 -8 33 -3
-2 -12 0 -19 4 -11 7 -9 13 8 30 18 18 21 33 21 106 0 53 -4 85 -11 85 -5 0
-7 -4 -4 -10 8 -13 -42 -59 -72 -66 -41 -11 -73 3 -73 32 0 18 7 28 20 31 26
7 22 39 -4 35 -10 -2 -15 1 -12 6 3 6 -2 8 -13 5 -16 -4 -22 3 -30 39 -24 96
-75 290 -107 403 -82 292 -162 432 -304 528 -38 26 -48 21 -54 -25z m31 10
c-3 -8 -6 -5 -6 6 -1 11 2 17 5 13 3 -3 4 -12 1 -19z m-10 -110 c-3 -8 -6 -5
-6 6 -1 11 2 17 5 13 3 -3 4 -12 1 -19z m81 -53 c19 0 39 -3 45 -7 7 -4 -14
-7 -45 -7 -45 1 -55 5 -51 16 3 8 9 11 12 6 3 -5 21 -9 39 -8z m-101 -142 c-3
-10 -5 -2 -5 17 0 19 2 27 5 18 2 -10 2 -26 0 -35z m346 -566 c-3 -5 -17 -13
-31 -18 -21 -8 -23 -12 -12 -19 15 -9 13 -10 -90 -30 -74 -14 -185 -5 -228 18
-42 24 -5 39 114 47 60 4 111 9 114 12 8 8 138 -2 133 -10z m-396 -99 c-3 -8
-6 -5 -6 6 -1 11 2 17 5 13 3 -3 4 -12 1 -19z m512 -43 c2 -3 -47 -5 -110 -5
-68 0 -119 -4 -126 -11 -18 -18 -124 -24 -134 -8 -6 9 -9 10 -9 2 0 -7 -21
-15 -51 -19 -28 -4 -56 -13 -64 -20 -22 -23 -31 -16 -27 21 4 33 6 35 46 36
22 1 122 5 221 9 173 6 243 5 254 -5z m-141 -27 c29 -2 32 -5 31 -33 -1 -29
-1 -29 -9 -5 l-8 25 -1 -27 c-1 -16 -5 -28 -10 -28 -5 0 -7 10 -5 23 2 12 2
16 -2 10 -8 -19 -54 -16 -54 2 0 9 -7 18 -15 21 -26 10 -16 26 13 20 15 -3 42
-7 60 -8z m92 -37 c0 -25 -3 -28 -25 -23 -18 3 -25 11 -25 28 0 19 5 24 25 24
21 0 25 -5 25 -29z m23 9 c3 -11 1 -23 -4 -26 -5 -3 -9 6 -9 20 0 31 6 34 13
6z m-215 -327 c-10 -2 -28 -2 -40 0 -13 2 -5 4 17 4 22 1 32 -1 23 -4z"/>
<path d="M1059 557 c5 -5 19 -7 32 -5 20 3 19 5 -9 9 -20 3 -29 2 -23 -4z"/>
<path d="M800 695 c0 -46 15 -46 16 0 0 19 -3 35 -8 35 -4 0 -8 -16 -8 -35z"/>
<path d="M408 363 c7 -3 16 -2 19 1 4 3 -2 6 -13 5 -11 0 -14 -3 -6 -6z"/>
<path d="M1458 143 c7 -3 16 -2 19 1 4 3 -2 6 -13 5 -11 0 -14 -3 -6 -6z"/>
<path d="M1385 120 c4 -6 11 -8 16 -5 14 9 11 15 -7 15 -8 0 -12 -5 -9 -10z"/>
<path d="M1443 123 c9 -2 25 -2 35 0 9 3 1 5 -18 5 -19 0 -27 -2 -17 -5z"/>
<path d="M825 54 c9 -9 19 -13 23 -10 3 4 0 11 -8 16 -24 15 -33 11 -15 -6z"/>
<path d="M1180 60 c0 -5 5 -10 10 -10 6 0 10 5 10 10 0 6 -4 10 -10 10 -5 0
-10 -4 -10 -10z"/>
<path d="M1405 60 c-17 -7 -15 -8 10 -8 17 0 35 -1 40 -2 21 -5 45 0 45 10 0
12 -67 12 -95 0z"/>
<path d="M1005 19 c-16 -4 -23 -8 -15 -9 49 -6 67 -6 90 0 23 6 23 7 -10 11
-19 2 -48 1 -65 -2z"/>
<path d="M1205 10 c-4 -6 3 -10 14 -10 25 0 27 6 6 13 -8 4 -17 2 -20 -3z"/>
<path d="M1368 3 c7 -3 16 -2 19 1 4 3 -2 6 -13 5 -11 0 -14 -3 -6 -6z"/>
</g>
</svg>
